<svg width="8" height="12" viewBox="0 0 8 12" fill="none" xmlns="http://www.w3.org/2000/svg">
<path d="M1.23416 11.05C0.989071 11.0504 0.750566 10.8644 0.750001 10.5878L0.750001 10.5878C0.749748 10.4568 0.806929 10.3363 0.900113 10.2514C0.900144 10.2514 0.900174 10.2513 0.900204 10.2513L5.66583 5.90012L0.899983 1.54876L0.899974 1.54875C0.700177 1.36632 0.700177 1.0603 0.899974 0.877864C1.08668 0.707379 1.38078 0.707379 1.56749 0.877864L6.70027 5.5647L6.70029 5.56472C6.89992 5.74704 6.89988 6.05281 6.70031 6.23513L6.70027 6.23517L1.56781 10.9217L1.39891 10.7374L1.56749 10.922L1.56769 10.9218C1.47576 11.006 1.35543 11.0499 1.23416 11.05ZM1.23416 11.05C1.23401 11.05 1.23387 11.05 1.23373 11.05V10.8L1.23416 11.05Z" fill="#5F9621" stroke="#5F9621" stroke-width="0.5"/>
</svg>
