<svg width="132" height="23" viewBox="0 0 132 23" fill="none" xmlns="http://www.w3.org/2000/svg">
<path d="M19.8927 18.3341C19.8927 21.5734 18.1202 23 14.7782 23H1.26506L2.10407 19.895H14.6868C15.7829 19.895 16.3605 19.5879 16.3605 18.3341V17.9879C16.3605 16.7347 15.7835 16.427 14.6868 16.427H6.11328C2.77064 16.427 0.998795 15.001 0.998795 11.7611V11.6193C0.998795 8.38007 2.77064 6.95344 6.11328 6.95344H19.1956L18.3572 10.0584H6.20467C5.10854 10.0584 4.53092 10.3655 4.53092 11.6193V11.7611C4.53092 13.0143 5.10793 13.322 6.20467 13.322H14.7782C18.1208 13.322 19.8927 14.748 19.8927 17.9879V18.3341ZM40.8691 23H28.6026C25.1424 23 23.2164 21.4316 23.2164 18.0575V11.8966C23.2164 8.52242 25.1418 6.95407 28.6026 6.95407H40.7789L39.9387 10.0591H28.6946C27.5693 10.0591 26.7497 10.5769 26.7497 11.8966V18.0575C26.7497 19.3772 27.5693 19.8956 28.6946 19.8956H40.0319L40.8691 23ZM59.4924 16.2069H47.5349V23H44.0021V6.95407H47.5349V13.1585H59.4924V6.95407H63.0246V23H59.4924V16.2069ZM108.432 23H96.1657C92.7055 23 90.7795 21.4316 90.7795 18.0575V11.8966C90.7795 8.52242 92.7049 6.95407 96.1657 6.95407H108.342L107.502 10.0591H96.2577C95.1323 10.0591 94.3128 10.5769 94.3128 11.8966V18.0575C94.3128 19.3772 95.1323 19.8956 96.2577 19.8956H107.595L108.432 23ZM67.1532 18.0575V6.95407H70.6859V18.0575C70.6859 19.3772 71.5054 19.8956 72.6308 19.8956H81.526C82.6514 19.8956 83.4709 19.3778 83.4709 18.0575V6.95407H87.0036V18.0575C87.0036 21.4316 85.0789 23 81.6174 23H72.5394C69.0786 23 67.1532 21.4323 67.1532 18.0575ZM128.448 18.0575V11.8966C128.448 10.5769 127.629 10.0591 126.503 10.0591H116.381C115.255 10.0591 114.436 10.5769 114.436 11.8966V18.0575C114.436 19.3772 115.255 19.8956 116.381 19.8956H126.503C127.629 19.8956 128.448 19.3778 128.448 18.0575ZM126.595 23H116.289C112.829 23 110.903 21.4316 110.903 18.0575V11.8966C110.903 8.52242 112.828 6.95407 116.289 6.95407H126.595C130.055 6.95407 131.981 8.52242 131.981 11.8966V18.0575C131.981 21.4316 130.055 23 126.595 23ZM74.4203 0.233093H79.7359L78.619 4.64971H75.5372L74.4203 0.233093ZM81.6844 0.233093H86.2109L83.4703 4.64971H80.2715L81.6844 0.233093ZM67.9453 0.233093H72.4718L73.8841 4.64971H70.6859L67.9453 0.233093Z" fill="black"/>
</svg>
